<mxfile host="app.diagrams.net" modified="2022-05-31T06:15:41.610Z" agent="5.0 (Windows)" etag="r3jC0LwhtqpLRvzBWJ4S" version="18.1.3" type="github">
  <diagram id="8ZkqR9EWuFqyNYvqK0VV" name="Page-1">
    <mxGraphModel dx="2249" dy="780" grid="1" gridSize="10" guides="1" tooltips="1" connect="1" arrows="1" fold="1" page="1" pageScale="1" pageWidth="827" pageHeight="1169" background="none" math="0" shadow="0">
      <root>
        <mxCell id="0" />
        <mxCell id="1" parent="0" />
        <mxCell id="O_YKN4MGbLcvjd-okBJ1-4" value="Главное" style="rounded=0;whiteSpace=wrap;html=1;" parent="1" vertex="1">
          <mxGeometry x="40" y="40" width="120" height="40" as="geometry" />
        </mxCell>
        <mxCell id="O_YKN4MGbLcvjd-okBJ1-5" value="Операции" style="rounded=0;whiteSpace=wrap;html=1;" parent="1" vertex="1">
          <mxGeometry x="180" y="100" width="190" height="40" as="geometry" />
        </mxCell>
        <mxCell id="O_YKN4MGbLcvjd-okBJ1-6" value="" style="endArrow=classic;html=1;rounded=0;exitX=0.5;exitY=1;exitDx=0;exitDy=0;entryX=0;entryY=0.5;entryDx=0;entryDy=0;" parent="1" source="O_YKN4MGbLcvjd-okBJ1-4" target="O_YKN4MGbLcvjd-okBJ1-5" edge="1">
          <mxGeometry width="50" height="50" relative="1" as="geometry">
            <mxPoint x="60" y="150" as="sourcePoint" />
            <mxPoint x="110" y="100" as="targetPoint" />
            <Array as="points">
              <mxPoint x="100" y="120" />
            </Array>
          </mxGeometry>
        </mxCell>
        <mxCell id="O_YKN4MGbLcvjd-okBJ1-7" value="Задачи" style="rounded=0;whiteSpace=wrap;html=1;" parent="1" vertex="1">
          <mxGeometry x="180" y="150" width="190" height="40" as="geometry" />
        </mxCell>
        <mxCell id="O_YKN4MGbLcvjd-okBJ1-8" value="" style="endArrow=classic;html=1;rounded=0;entryX=0;entryY=0.5;entryDx=0;entryDy=0;" parent="1" target="O_YKN4MGbLcvjd-okBJ1-7" edge="1">
          <mxGeometry width="50" height="50" relative="1" as="geometry">
            <mxPoint x="100" y="110" as="sourcePoint" />
            <mxPoint x="110" y="150" as="targetPoint" />
            <Array as="points">
              <mxPoint x="100" y="170" />
            </Array>
          </mxGeometry>
        </mxCell>
        <mxCell id="O_YKN4MGbLcvjd-okBJ1-31" value="Руководителю" style="rounded=0;whiteSpace=wrap;html=1;" parent="1" vertex="1">
          <mxGeometry x="40" y="270" width="120" height="40" as="geometry" />
        </mxCell>
        <mxCell id="O_YKN4MGbLcvjd-okBJ1-32" value="Анализ" style="rounded=0;whiteSpace=wrap;html=1;" parent="1" vertex="1">
          <mxGeometry x="180" y="330" width="190" height="40" as="geometry" />
        </mxCell>
        <mxCell id="O_YKN4MGbLcvjd-okBJ1-33" value="" style="endArrow=classic;html=1;rounded=0;exitX=0.5;exitY=1;exitDx=0;exitDy=0;entryX=0;entryY=0.5;entryDx=0;entryDy=0;" parent="1" source="O_YKN4MGbLcvjd-okBJ1-31" target="O_YKN4MGbLcvjd-okBJ1-32" edge="1">
          <mxGeometry width="50" height="50" relative="1" as="geometry">
            <mxPoint x="60" y="380" as="sourcePoint" />
            <mxPoint x="110" y="330" as="targetPoint" />
            <Array as="points">
              <mxPoint x="100" y="350" />
            </Array>
          </mxGeometry>
        </mxCell>
        <mxCell id="O_YKN4MGbLcvjd-okBJ1-34" value="Продажи" style="rounded=0;whiteSpace=wrap;html=1;" parent="1" vertex="1">
          <mxGeometry x="180" y="380" width="190" height="40" as="geometry" />
        </mxCell>
        <mxCell id="O_YKN4MGbLcvjd-okBJ1-35" value="" style="endArrow=classic;html=1;rounded=0;entryX=0;entryY=0.5;entryDx=0;entryDy=0;" parent="1" target="O_YKN4MGbLcvjd-okBJ1-34" edge="1">
          <mxGeometry width="50" height="50" relative="1" as="geometry">
            <mxPoint x="100" y="340" as="sourcePoint" />
            <mxPoint x="110" y="380" as="targetPoint" />
            <Array as="points">
              <mxPoint x="100" y="400" />
            </Array>
          </mxGeometry>
        </mxCell>
        <mxCell id="O_YKN4MGbLcvjd-okBJ1-36" value="Денежные средства" style="rounded=0;whiteSpace=wrap;html=1;" parent="1" vertex="1">
          <mxGeometry x="180" y="430" width="190" height="40" as="geometry" />
        </mxCell>
        <mxCell id="O_YKN4MGbLcvjd-okBJ1-37" value="" style="endArrow=classic;html=1;rounded=0;entryX=0;entryY=0.5;entryDx=0;entryDy=0;" parent="1" target="O_YKN4MGbLcvjd-okBJ1-36" edge="1">
          <mxGeometry width="50" height="50" relative="1" as="geometry">
            <mxPoint x="100" y="400" as="sourcePoint" />
            <mxPoint x="110" y="440" as="targetPoint" />
            <Array as="points">
              <mxPoint x="100" y="450" />
            </Array>
          </mxGeometry>
        </mxCell>
        <mxCell id="O_YKN4MGbLcvjd-okBJ1-38" value="Расчеты с покупателями" style="rounded=0;whiteSpace=wrap;html=1;" parent="1" vertex="1">
          <mxGeometry x="180" y="480" width="190" height="40" as="geometry" />
        </mxCell>
        <mxCell id="O_YKN4MGbLcvjd-okBJ1-39" value="" style="endArrow=classic;html=1;rounded=0;entryX=0;entryY=0.5;entryDx=0;entryDy=0;" parent="1" target="O_YKN4MGbLcvjd-okBJ1-38" edge="1">
          <mxGeometry width="50" height="50" relative="1" as="geometry">
            <mxPoint x="100" y="450" as="sourcePoint" />
            <mxPoint x="110" y="490" as="targetPoint" />
            <Array as="points">
              <mxPoint x="100" y="500" />
            </Array>
          </mxGeometry>
        </mxCell>
        <mxCell id="O_YKN4MGbLcvjd-okBJ1-40" value="Основные средства" style="rounded=0;whiteSpace=wrap;html=1;" parent="1" vertex="1">
          <mxGeometry x="180" y="530" width="190" height="40" as="geometry" />
        </mxCell>
        <mxCell id="O_YKN4MGbLcvjd-okBJ1-41" value="" style="endArrow=classic;html=1;rounded=0;entryX=0;entryY=0.5;entryDx=0;entryDy=0;" parent="1" target="O_YKN4MGbLcvjd-okBJ1-40" edge="1">
          <mxGeometry width="50" height="50" relative="1" as="geometry">
            <mxPoint x="100" y="500" as="sourcePoint" />
            <mxPoint x="110" y="540" as="targetPoint" />
            <Array as="points">
              <mxPoint x="100" y="550" />
            </Array>
          </mxGeometry>
        </mxCell>
        <mxCell id="O_YKN4MGbLcvjd-okBJ1-42" value="Общие показатели" style="rounded=0;whiteSpace=wrap;html=1;" parent="1" vertex="1">
          <mxGeometry x="180" y="580" width="190" height="40" as="geometry" />
        </mxCell>
        <mxCell id="O_YKN4MGbLcvjd-okBJ1-43" value="" style="endArrow=classic;html=1;rounded=0;entryX=0;entryY=0.5;entryDx=0;entryDy=0;" parent="1" target="O_YKN4MGbLcvjd-okBJ1-42" edge="1">
          <mxGeometry width="50" height="50" relative="1" as="geometry">
            <mxPoint x="100" y="550" as="sourcePoint" />
            <mxPoint x="110" y="590" as="targetPoint" />
            <Array as="points">
              <mxPoint x="100" y="600" />
            </Array>
          </mxGeometry>
        </mxCell>
        <mxCell id="O_YKN4MGbLcvjd-okBJ1-45" value="Планирование" style="rounded=0;whiteSpace=wrap;html=1;" parent="1" vertex="1">
          <mxGeometry x="180" y="630" width="190" height="40" as="geometry" />
        </mxCell>
        <mxCell id="O_YKN4MGbLcvjd-okBJ1-46" value="" style="endArrow=classic;html=1;rounded=0;entryX=0;entryY=0.5;entryDx=0;entryDy=0;" parent="1" target="O_YKN4MGbLcvjd-okBJ1-45" edge="1">
          <mxGeometry width="50" height="50" relative="1" as="geometry">
            <mxPoint x="100" y="600" as="sourcePoint" />
            <mxPoint x="110" y="640" as="targetPoint" />
            <Array as="points">
              <mxPoint x="100" y="650" />
            </Array>
          </mxGeometry>
        </mxCell>
        <mxCell id="O_YKN4MGbLcvjd-okBJ1-47" value="Электронные документы" style="rounded=0;whiteSpace=wrap;html=1;" parent="1" vertex="1">
          <mxGeometry x="180" y="680" width="190" height="40" as="geometry" />
        </mxCell>
        <mxCell id="O_YKN4MGbLcvjd-okBJ1-48" value="" style="endArrow=classic;html=1;rounded=0;entryX=0;entryY=0.5;entryDx=0;entryDy=0;" parent="1" target="O_YKN4MGbLcvjd-okBJ1-47" edge="1">
          <mxGeometry width="50" height="50" relative="1" as="geometry">
            <mxPoint x="100" y="650" as="sourcePoint" />
            <mxPoint x="110" y="690" as="targetPoint" />
            <Array as="points">
              <mxPoint x="100" y="700" />
            </Array>
          </mxGeometry>
        </mxCell>
        <mxCell id="O_YKN4MGbLcvjd-okBJ1-49" value="Банк и касса" style="rounded=0;whiteSpace=wrap;html=1;" parent="1" vertex="1">
          <mxGeometry x="40" y="740" width="120" height="40" as="geometry" />
        </mxCell>
        <mxCell id="O_YKN4MGbLcvjd-okBJ1-50" value="Банк" style="rounded=0;whiteSpace=wrap;html=1;" parent="1" vertex="1">
          <mxGeometry x="180" y="800" width="190" height="40" as="geometry" />
        </mxCell>
        <mxCell id="O_YKN4MGbLcvjd-okBJ1-51" value="" style="endArrow=classic;html=1;rounded=0;exitX=0.5;exitY=1;exitDx=0;exitDy=0;entryX=0;entryY=0.5;entryDx=0;entryDy=0;" parent="1" source="O_YKN4MGbLcvjd-okBJ1-49" target="O_YKN4MGbLcvjd-okBJ1-50" edge="1">
          <mxGeometry width="50" height="50" relative="1" as="geometry">
            <mxPoint x="60" y="850" as="sourcePoint" />
            <mxPoint x="110" y="800" as="targetPoint" />
            <Array as="points">
              <mxPoint x="100" y="820" />
            </Array>
          </mxGeometry>
        </mxCell>
        <mxCell id="O_YKN4MGbLcvjd-okBJ1-52" value="Финансы" style="rounded=0;whiteSpace=wrap;html=1;" parent="1" vertex="1">
          <mxGeometry x="180" y="850" width="190" height="40" as="geometry" />
        </mxCell>
        <mxCell id="O_YKN4MGbLcvjd-okBJ1-53" value="" style="endArrow=classic;html=1;rounded=0;entryX=0;entryY=0.5;entryDx=0;entryDy=0;" parent="1" target="O_YKN4MGbLcvjd-okBJ1-52" edge="1">
          <mxGeometry width="50" height="50" relative="1" as="geometry">
            <mxPoint x="100" y="810" as="sourcePoint" />
            <mxPoint x="110" y="850" as="targetPoint" />
            <Array as="points">
              <mxPoint x="100" y="870" />
            </Array>
          </mxGeometry>
        </mxCell>
        <mxCell id="O_YKN4MGbLcvjd-okBJ1-54" value="Денежные документы" style="rounded=0;whiteSpace=wrap;html=1;" parent="1" vertex="1">
          <mxGeometry x="180" y="900" width="190" height="40" as="geometry" />
        </mxCell>
        <mxCell id="O_YKN4MGbLcvjd-okBJ1-55" value="" style="endArrow=classic;html=1;rounded=0;entryX=0;entryY=0.5;entryDx=0;entryDy=0;" parent="1" target="O_YKN4MGbLcvjd-okBJ1-54" edge="1">
          <mxGeometry width="50" height="50" relative="1" as="geometry">
            <mxPoint x="100" y="870" as="sourcePoint" />
            <mxPoint x="110" y="910" as="targetPoint" />
            <Array as="points">
              <mxPoint x="100" y="920" />
            </Array>
          </mxGeometry>
        </mxCell>
        <mxCell id="O_YKN4MGbLcvjd-okBJ1-56" value="Касса" style="rounded=0;whiteSpace=wrap;html=1;" parent="1" vertex="1">
          <mxGeometry x="180" y="950" width="190" height="40" as="geometry" />
        </mxCell>
        <mxCell id="O_YKN4MGbLcvjd-okBJ1-57" value="" style="endArrow=classic;html=1;rounded=0;entryX=0;entryY=0.5;entryDx=0;entryDy=0;" parent="1" target="O_YKN4MGbLcvjd-okBJ1-56" edge="1">
          <mxGeometry width="50" height="50" relative="1" as="geometry">
            <mxPoint x="100" y="920" as="sourcePoint" />
            <mxPoint x="110" y="960" as="targetPoint" />
            <Array as="points">
              <mxPoint x="100" y="970" />
            </Array>
          </mxGeometry>
        </mxCell>
        <mxCell id="O_YKN4MGbLcvjd-okBJ1-58" value="Регистрация счетов-фактур" style="rounded=0;whiteSpace=wrap;html=1;" parent="1" vertex="1">
          <mxGeometry x="180" y="1000" width="190" height="40" as="geometry" />
        </mxCell>
        <mxCell id="O_YKN4MGbLcvjd-okBJ1-59" value="" style="endArrow=classic;html=1;rounded=0;entryX=0;entryY=0.5;entryDx=0;entryDy=0;" parent="1" target="O_YKN4MGbLcvjd-okBJ1-58" edge="1">
          <mxGeometry width="50" height="50" relative="1" as="geometry">
            <mxPoint x="100" y="970" as="sourcePoint" />
            <mxPoint x="110" y="1010" as="targetPoint" />
            <Array as="points">
              <mxPoint x="100" y="1020" />
            </Array>
          </mxGeometry>
        </mxCell>
        <mxCell id="O_YKN4MGbLcvjd-okBJ1-60" value="Онлайн-касса" style="rounded=0;whiteSpace=wrap;html=1;" parent="1" vertex="1">
          <mxGeometry x="180" y="1050" width="190" height="40" as="geometry" />
        </mxCell>
        <mxCell id="O_YKN4MGbLcvjd-okBJ1-61" value="" style="endArrow=classic;html=1;rounded=0;entryX=0;entryY=0.5;entryDx=0;entryDy=0;" parent="1" target="O_YKN4MGbLcvjd-okBJ1-60" edge="1">
          <mxGeometry width="50" height="50" relative="1" as="geometry">
            <mxPoint x="100" y="1020" as="sourcePoint" />
            <mxPoint x="110" y="1060" as="targetPoint" />
            <Array as="points">
              <mxPoint x="100" y="1070" />
            </Array>
          </mxGeometry>
        </mxCell>
        <mxCell id="O_YKN4MGbLcvjd-okBJ1-64" value="Продажи" style="rounded=0;whiteSpace=wrap;html=1;" parent="1" vertex="1">
          <mxGeometry x="40" y="1180" width="120" height="40" as="geometry" />
        </mxCell>
        <mxCell id="O_YKN4MGbLcvjd-okBJ1-65" value="Продажи" style="rounded=0;whiteSpace=wrap;html=1;" parent="1" vertex="1">
          <mxGeometry x="180" y="1240" width="190" height="40" as="geometry" />
        </mxCell>
        <mxCell id="O_YKN4MGbLcvjd-okBJ1-66" value="" style="endArrow=classic;html=1;rounded=0;exitX=0.5;exitY=1;exitDx=0;exitDy=0;entryX=0;entryY=0.5;entryDx=0;entryDy=0;" parent="1" source="O_YKN4MGbLcvjd-okBJ1-64" target="O_YKN4MGbLcvjd-okBJ1-65" edge="1">
          <mxGeometry width="50" height="50" relative="1" as="geometry">
            <mxPoint x="80" y="1290" as="sourcePoint" />
            <mxPoint x="130" y="1240" as="targetPoint" />
            <Array as="points">
              <mxPoint x="100" y="1260" />
            </Array>
          </mxGeometry>
        </mxCell>
        <mxCell id="O_YKN4MGbLcvjd-okBJ1-67" value="Розничные продажи" style="rounded=0;whiteSpace=wrap;html=1;" parent="1" vertex="1">
          <mxGeometry x="180" y="1290" width="190" height="40" as="geometry" />
        </mxCell>
        <mxCell id="O_YKN4MGbLcvjd-okBJ1-68" value="" style="endArrow=classic;html=1;rounded=0;entryX=0;entryY=0.5;entryDx=0;entryDy=0;" parent="1" target="O_YKN4MGbLcvjd-okBJ1-67" edge="1">
          <mxGeometry width="50" height="50" relative="1" as="geometry">
            <mxPoint x="100" y="1250" as="sourcePoint" />
            <mxPoint x="110" y="1290" as="targetPoint" />
            <Array as="points">
              <mxPoint x="100" y="1310" />
            </Array>
          </mxGeometry>
        </mxCell>
        <mxCell id="O_YKN4MGbLcvjd-okBJ1-69" value="Расчеты с контрагентами" style="rounded=0;whiteSpace=wrap;html=1;" parent="1" vertex="1">
          <mxGeometry x="180" y="1340" width="190" height="40" as="geometry" />
        </mxCell>
        <mxCell id="O_YKN4MGbLcvjd-okBJ1-70" value="" style="endArrow=classic;html=1;rounded=0;entryX=0;entryY=0.5;entryDx=0;entryDy=0;" parent="1" target="O_YKN4MGbLcvjd-okBJ1-69" edge="1">
          <mxGeometry width="50" height="50" relative="1" as="geometry">
            <mxPoint x="100" y="1310" as="sourcePoint" />
            <mxPoint x="110" y="1350" as="targetPoint" />
            <Array as="points">
              <mxPoint x="100" y="1360" />
            </Array>
          </mxGeometry>
        </mxCell>
        <mxCell id="O_YKN4MGbLcvjd-okBJ1-71" value="Электронные документы" style="rounded=0;whiteSpace=wrap;html=1;" parent="1" vertex="1">
          <mxGeometry x="180" y="1390" width="190" height="40" as="geometry" />
        </mxCell>
        <mxCell id="O_YKN4MGbLcvjd-okBJ1-72" value="" style="endArrow=classic;html=1;rounded=0;entryX=0;entryY=0.5;entryDx=0;entryDy=0;" parent="1" target="O_YKN4MGbLcvjd-okBJ1-71" edge="1">
          <mxGeometry width="50" height="50" relative="1" as="geometry">
            <mxPoint x="100" y="1360" as="sourcePoint" />
            <mxPoint x="110" y="1400" as="targetPoint" />
            <Array as="points">
              <mxPoint x="100" y="1410" />
            </Array>
          </mxGeometry>
        </mxCell>
        <mxCell id="O_YKN4MGbLcvjd-okBJ1-73" value="Отчеты" style="rounded=0;whiteSpace=wrap;html=1;" parent="1" vertex="1">
          <mxGeometry x="180" y="1440" width="190" height="40" as="geometry" />
        </mxCell>
        <mxCell id="O_YKN4MGbLcvjd-okBJ1-74" value="" style="endArrow=classic;html=1;rounded=0;entryX=0;entryY=0.5;entryDx=0;entryDy=0;" parent="1" target="O_YKN4MGbLcvjd-okBJ1-73" edge="1">
          <mxGeometry width="50" height="50" relative="1" as="geometry">
            <mxPoint x="100" y="1410" as="sourcePoint" />
            <mxPoint x="110" y="1450" as="targetPoint" />
            <Array as="points">
              <mxPoint x="100" y="1460" />
            </Array>
          </mxGeometry>
        </mxCell>
        <mxCell id="O_YKN4MGbLcvjd-okBJ1-79" value="Покупки" style="rounded=0;whiteSpace=wrap;html=1;" parent="1" vertex="1">
          <mxGeometry x="40" y="1560" width="120" height="40" as="geometry" />
        </mxCell>
        <mxCell id="O_YKN4MGbLcvjd-okBJ1-80" value="Покупки" style="rounded=0;whiteSpace=wrap;html=1;" parent="1" vertex="1">
          <mxGeometry x="170" y="1620" width="190" height="40" as="geometry" />
        </mxCell>
        <mxCell id="O_YKN4MGbLcvjd-okBJ1-81" value="" style="endArrow=classic;html=1;rounded=0;exitX=0.414;exitY=1.017;exitDx=0;exitDy=0;entryX=0;entryY=0.5;entryDx=0;entryDy=0;exitPerimeter=0;" parent="1" source="O_YKN4MGbLcvjd-okBJ1-79" target="O_YKN4MGbLcvjd-okBJ1-80" edge="1">
          <mxGeometry width="50" height="50" relative="1" as="geometry">
            <mxPoint x="90" y="1670" as="sourcePoint" />
            <mxPoint x="140" y="1620" as="targetPoint" />
            <Array as="points">
              <mxPoint x="90" y="1640" />
            </Array>
          </mxGeometry>
        </mxCell>
        <mxCell id="O_YKN4MGbLcvjd-okBJ1-82" value="Расчеты с контрагентами" style="rounded=0;whiteSpace=wrap;html=1;" parent="1" vertex="1">
          <mxGeometry x="170" y="1670" width="190" height="40" as="geometry" />
        </mxCell>
        <mxCell id="O_YKN4MGbLcvjd-okBJ1-83" value="" style="endArrow=classic;html=1;rounded=0;entryX=0;entryY=0.5;entryDx=0;entryDy=0;" parent="1" target="O_YKN4MGbLcvjd-okBJ1-82" edge="1">
          <mxGeometry width="50" height="50" relative="1" as="geometry">
            <mxPoint x="90" y="1630" as="sourcePoint" />
            <mxPoint x="100" y="1670" as="targetPoint" />
            <Array as="points">
              <mxPoint x="90" y="1690" />
            </Array>
          </mxGeometry>
        </mxCell>
        <mxCell id="O_YKN4MGbLcvjd-okBJ1-84" value="Электронные документы" style="rounded=0;whiteSpace=wrap;html=1;" parent="1" vertex="1">
          <mxGeometry x="170" y="1720" width="190" height="40" as="geometry" />
        </mxCell>
        <mxCell id="O_YKN4MGbLcvjd-okBJ1-85" value="" style="endArrow=classic;html=1;rounded=0;entryX=0;entryY=0.5;entryDx=0;entryDy=0;" parent="1" target="O_YKN4MGbLcvjd-okBJ1-84" edge="1">
          <mxGeometry width="50" height="50" relative="1" as="geometry">
            <mxPoint x="90" y="1690" as="sourcePoint" />
            <mxPoint x="100" y="1730" as="targetPoint" />
            <Array as="points">
              <mxPoint x="90" y="1740" />
            </Array>
          </mxGeometry>
        </mxCell>
        <mxCell id="O_YKN4MGbLcvjd-okBJ1-90" value="Склад" style="rounded=0;whiteSpace=wrap;html=1;" parent="1" vertex="1">
          <mxGeometry x="40" y="1900" width="120" height="40" as="geometry" />
        </mxCell>
        <mxCell id="O_YKN4MGbLcvjd-okBJ1-91" value="Склад" style="rounded=0;whiteSpace=wrap;html=1;" parent="1" vertex="1">
          <mxGeometry x="180" y="1960" width="190" height="40" as="geometry" />
        </mxCell>
        <mxCell id="O_YKN4MGbLcvjd-okBJ1-92" value="" style="endArrow=classic;html=1;rounded=0;exitX=0.5;exitY=1;exitDx=0;exitDy=0;entryX=0;entryY=0.5;entryDx=0;entryDy=0;" parent="1" source="O_YKN4MGbLcvjd-okBJ1-90" target="O_YKN4MGbLcvjd-okBJ1-91" edge="1">
          <mxGeometry width="50" height="50" relative="1" as="geometry">
            <mxPoint x="60" y="2010" as="sourcePoint" />
            <mxPoint x="110" y="1960" as="targetPoint" />
            <Array as="points">
              <mxPoint x="100" y="1980" />
            </Array>
          </mxGeometry>
        </mxCell>
        <mxCell id="O_YKN4MGbLcvjd-okBJ1-93" value="&lt;div&gt;Инвентаризация&lt;/div&gt;" style="rounded=0;whiteSpace=wrap;html=1;" parent="1" vertex="1">
          <mxGeometry x="180" y="2010" width="190" height="40" as="geometry" />
        </mxCell>
        <mxCell id="O_YKN4MGbLcvjd-okBJ1-94" value="" style="endArrow=classic;html=1;rounded=0;entryX=0;entryY=0.5;entryDx=0;entryDy=0;" parent="1" target="O_YKN4MGbLcvjd-okBJ1-93" edge="1">
          <mxGeometry width="50" height="50" relative="1" as="geometry">
            <mxPoint x="100" y="1970" as="sourcePoint" />
            <mxPoint x="110" y="2010" as="targetPoint" />
            <Array as="points">
              <mxPoint x="100" y="2030" />
            </Array>
          </mxGeometry>
        </mxCell>
        <mxCell id="O_YKN4MGbLcvjd-okBJ1-95" value="Цены" style="rounded=0;whiteSpace=wrap;html=1;" parent="1" vertex="1">
          <mxGeometry x="180" y="2060" width="190" height="40" as="geometry" />
        </mxCell>
        <mxCell id="O_YKN4MGbLcvjd-okBJ1-96" value="" style="endArrow=classic;html=1;rounded=0;entryX=0;entryY=0.5;entryDx=0;entryDy=0;" parent="1" target="O_YKN4MGbLcvjd-okBJ1-95" edge="1">
          <mxGeometry width="50" height="50" relative="1" as="geometry">
            <mxPoint x="100" y="2030" as="sourcePoint" />
            <mxPoint x="110" y="2070" as="targetPoint" />
            <Array as="points">
              <mxPoint x="100" y="2080" />
            </Array>
          </mxGeometry>
        </mxCell>
        <mxCell id="O_YKN4MGbLcvjd-okBJ1-97" value="Спецодежда и инвентарь" style="rounded=0;whiteSpace=wrap;html=1;" parent="1" vertex="1">
          <mxGeometry x="180" y="2110" width="190" height="40" as="geometry" />
        </mxCell>
        <mxCell id="O_YKN4MGbLcvjd-okBJ1-98" value="" style="endArrow=classic;html=1;rounded=0;entryX=0;entryY=0.5;entryDx=0;entryDy=0;" parent="1" target="O_YKN4MGbLcvjd-okBJ1-97" edge="1">
          <mxGeometry width="50" height="50" relative="1" as="geometry">
            <mxPoint x="100" y="2080" as="sourcePoint" />
            <mxPoint x="110" y="2120" as="targetPoint" />
            <Array as="points">
              <mxPoint x="100" y="2130" />
            </Array>
          </mxGeometry>
        </mxCell>
        <mxCell id="O_YKN4MGbLcvjd-okBJ1-99" value="Отчеты" style="rounded=0;whiteSpace=wrap;html=1;" parent="1" vertex="1">
          <mxGeometry x="180" y="2160" width="190" height="40" as="geometry" />
        </mxCell>
        <mxCell id="O_YKN4MGbLcvjd-okBJ1-100" value="" style="endArrow=classic;html=1;rounded=0;entryX=0;entryY=0.5;entryDx=0;entryDy=0;" parent="1" target="O_YKN4MGbLcvjd-okBJ1-99" edge="1">
          <mxGeometry width="50" height="50" relative="1" as="geometry">
            <mxPoint x="100" y="2130" as="sourcePoint" />
            <mxPoint x="110" y="2170" as="targetPoint" />
            <Array as="points">
              <mxPoint x="100" y="2180" />
            </Array>
          </mxGeometry>
        </mxCell>
        <mxCell id="O_YKN4MGbLcvjd-okBJ1-103" value="Производство" style="rounded=0;whiteSpace=wrap;html=1;" parent="1" vertex="1">
          <mxGeometry x="40" y="2280" width="120" height="40" as="geometry" />
        </mxCell>
        <mxCell id="O_YKN4MGbLcvjd-okBJ1-104" value="Выпуск продукции" style="rounded=0;whiteSpace=wrap;html=1;" parent="1" vertex="1">
          <mxGeometry x="180" y="2340" width="190" height="40" as="geometry" />
        </mxCell>
        <mxCell id="O_YKN4MGbLcvjd-okBJ1-105" value="" style="endArrow=classic;html=1;rounded=0;exitX=0.5;exitY=1;exitDx=0;exitDy=0;entryX=0;entryY=0.5;entryDx=0;entryDy=0;" parent="1" source="O_YKN4MGbLcvjd-okBJ1-103" target="O_YKN4MGbLcvjd-okBJ1-104" edge="1">
          <mxGeometry width="50" height="50" relative="1" as="geometry">
            <mxPoint x="60" y="2390" as="sourcePoint" />
            <mxPoint x="110" y="2340" as="targetPoint" />
            <Array as="points">
              <mxPoint x="100" y="2360" />
            </Array>
          </mxGeometry>
        </mxCell>
        <mxCell id="O_YKN4MGbLcvjd-okBJ1-106" value="Переработка" style="rounded=0;whiteSpace=wrap;html=1;" parent="1" vertex="1">
          <mxGeometry x="180" y="2390" width="190" height="40" as="geometry" />
        </mxCell>
        <mxCell id="O_YKN4MGbLcvjd-okBJ1-107" value="" style="endArrow=classic;html=1;rounded=0;entryX=0;entryY=0.5;entryDx=0;entryDy=0;" parent="1" target="O_YKN4MGbLcvjd-okBJ1-106" edge="1">
          <mxGeometry width="50" height="50" relative="1" as="geometry">
            <mxPoint x="100" y="2350" as="sourcePoint" />
            <mxPoint x="110" y="2390" as="targetPoint" />
            <Array as="points">
              <mxPoint x="100" y="2410" />
            </Array>
          </mxGeometry>
        </mxCell>
        <mxCell id="O_YKN4MGbLcvjd-okBJ1-108" value="Передача в переработку" style="rounded=0;whiteSpace=wrap;html=1;" parent="1" vertex="1">
          <mxGeometry x="180" y="2440" width="190" height="40" as="geometry" />
        </mxCell>
        <mxCell id="O_YKN4MGbLcvjd-okBJ1-109" value="" style="endArrow=classic;html=1;rounded=0;entryX=0;entryY=0.5;entryDx=0;entryDy=0;" parent="1" target="O_YKN4MGbLcvjd-okBJ1-108" edge="1">
          <mxGeometry width="50" height="50" relative="1" as="geometry">
            <mxPoint x="100" y="2410" as="sourcePoint" />
            <mxPoint x="110" y="2450" as="targetPoint" />
            <Array as="points">
              <mxPoint x="100" y="2460" />
            </Array>
          </mxGeometry>
        </mxCell>
        <mxCell id="O_YKN4MGbLcvjd-okBJ1-146" value="ОС и НМА" style="rounded=0;whiteSpace=wrap;html=1;" parent="1" vertex="1">
          <mxGeometry x="40" y="2550" width="120" height="40" as="geometry" />
        </mxCell>
        <mxCell id="O_YKN4MGbLcvjd-okBJ1-147" value="Поступление основных средств" style="rounded=0;whiteSpace=wrap;html=1;" parent="1" vertex="1">
          <mxGeometry x="180" y="2610" width="190" height="40" as="geometry" />
        </mxCell>
        <mxCell id="O_YKN4MGbLcvjd-okBJ1-148" value="" style="endArrow=classic;html=1;rounded=0;exitX=0.5;exitY=1;exitDx=0;exitDy=0;entryX=0;entryY=0.5;entryDx=0;entryDy=0;" parent="1" source="O_YKN4MGbLcvjd-okBJ1-146" target="O_YKN4MGbLcvjd-okBJ1-147" edge="1">
          <mxGeometry width="50" height="50" relative="1" as="geometry">
            <mxPoint x="60" y="2660" as="sourcePoint" />
            <mxPoint x="110" y="2610" as="targetPoint" />
            <Array as="points">
              <mxPoint x="100" y="2630" />
            </Array>
          </mxGeometry>
        </mxCell>
        <mxCell id="O_YKN4MGbLcvjd-okBJ1-149" value="Учет основных средств" style="rounded=0;whiteSpace=wrap;html=1;" parent="1" vertex="1">
          <mxGeometry x="180" y="2660" width="190" height="40" as="geometry" />
        </mxCell>
        <mxCell id="O_YKN4MGbLcvjd-okBJ1-150" value="" style="endArrow=classic;html=1;rounded=0;entryX=0;entryY=0.5;entryDx=0;entryDy=0;" parent="1" target="O_YKN4MGbLcvjd-okBJ1-149" edge="1">
          <mxGeometry width="50" height="50" relative="1" as="geometry">
            <mxPoint x="100" y="2620" as="sourcePoint" />
            <mxPoint x="110" y="2660" as="targetPoint" />
            <Array as="points">
              <mxPoint x="100" y="2680" />
            </Array>
          </mxGeometry>
        </mxCell>
        <mxCell id="O_YKN4MGbLcvjd-okBJ1-151" value="Выбытие основных средств" style="rounded=0;whiteSpace=wrap;html=1;" parent="1" vertex="1">
          <mxGeometry x="180" y="2710" width="190" height="40" as="geometry" />
        </mxCell>
        <mxCell id="O_YKN4MGbLcvjd-okBJ1-152" value="" style="endArrow=classic;html=1;rounded=0;entryX=0;entryY=0.5;entryDx=0;entryDy=0;" parent="1" target="O_YKN4MGbLcvjd-okBJ1-151" edge="1">
          <mxGeometry width="50" height="50" relative="1" as="geometry">
            <mxPoint x="100" y="2680" as="sourcePoint" />
            <mxPoint x="110" y="2720" as="targetPoint" />
            <Array as="points">
              <mxPoint x="100" y="2730" />
            </Array>
          </mxGeometry>
        </mxCell>
        <mxCell id="O_YKN4MGbLcvjd-okBJ1-153" value="Амортизация ОС" style="rounded=0;whiteSpace=wrap;html=1;" parent="1" vertex="1">
          <mxGeometry x="180" y="2760" width="190" height="40" as="geometry" />
        </mxCell>
        <mxCell id="O_YKN4MGbLcvjd-okBJ1-154" value="" style="endArrow=classic;html=1;rounded=0;entryX=0;entryY=0.5;entryDx=0;entryDy=0;" parent="1" target="O_YKN4MGbLcvjd-okBJ1-153" edge="1">
          <mxGeometry width="50" height="50" relative="1" as="geometry">
            <mxPoint x="100" y="2730" as="sourcePoint" />
            <mxPoint x="110" y="2770" as="targetPoint" />
            <Array as="points">
              <mxPoint x="100" y="2780" />
            </Array>
          </mxGeometry>
        </mxCell>
        <mxCell id="O_YKN4MGbLcvjd-okBJ1-155" value="Нематериальные активы" style="rounded=0;whiteSpace=wrap;html=1;" parent="1" vertex="1">
          <mxGeometry x="180" y="2810" width="190" height="40" as="geometry" />
        </mxCell>
        <mxCell id="O_YKN4MGbLcvjd-okBJ1-156" value="" style="endArrow=classic;html=1;rounded=0;entryX=0;entryY=0.5;entryDx=0;entryDy=0;" parent="1" target="O_YKN4MGbLcvjd-okBJ1-155" edge="1">
          <mxGeometry width="50" height="50" relative="1" as="geometry">
            <mxPoint x="100" y="2780" as="sourcePoint" />
            <mxPoint x="110" y="2820" as="targetPoint" />
            <Array as="points">
              <mxPoint x="100" y="2830" />
            </Array>
          </mxGeometry>
        </mxCell>
        <mxCell id="O_YKN4MGbLcvjd-okBJ1-157" value="Амортизация НМА" style="rounded=0;whiteSpace=wrap;html=1;" parent="1" vertex="1">
          <mxGeometry x="180" y="2860" width="190" height="40" as="geometry" />
        </mxCell>
        <mxCell id="O_YKN4MGbLcvjd-okBJ1-158" value="" style="endArrow=classic;html=1;rounded=0;entryX=0;entryY=0.5;entryDx=0;entryDy=0;" parent="1" target="O_YKN4MGbLcvjd-okBJ1-157" edge="1">
          <mxGeometry width="50" height="50" relative="1" as="geometry">
            <mxPoint x="100" y="2830" as="sourcePoint" />
            <mxPoint x="110" y="2870" as="targetPoint" />
            <Array as="points">
              <mxPoint x="100" y="2880" />
            </Array>
          </mxGeometry>
        </mxCell>
        <mxCell id="O_YKN4MGbLcvjd-okBJ1-159" value="Налоги" style="rounded=0;whiteSpace=wrap;html=1;" parent="1" vertex="1">
          <mxGeometry x="180" y="2910" width="190" height="40" as="geometry" />
        </mxCell>
        <mxCell id="O_YKN4MGbLcvjd-okBJ1-160" value="" style="endArrow=classic;html=1;rounded=0;entryX=0;entryY=0.5;entryDx=0;entryDy=0;" parent="1" target="O_YKN4MGbLcvjd-okBJ1-159" edge="1">
          <mxGeometry width="50" height="50" relative="1" as="geometry">
            <mxPoint x="100" y="2880" as="sourcePoint" />
            <mxPoint x="110" y="2920" as="targetPoint" />
            <Array as="points">
              <mxPoint x="100" y="2930" />
            </Array>
          </mxGeometry>
        </mxCell>
        <mxCell id="O_YKN4MGbLcvjd-okBJ1-161" value="Отчеты" style="rounded=0;whiteSpace=wrap;html=1;" parent="1" vertex="1">
          <mxGeometry x="180" y="2960" width="190" height="40" as="geometry" />
        </mxCell>
        <mxCell id="O_YKN4MGbLcvjd-okBJ1-162" value="" style="endArrow=classic;html=1;rounded=0;entryX=0;entryY=0.5;entryDx=0;entryDy=0;" parent="1" target="O_YKN4MGbLcvjd-okBJ1-161" edge="1">
          <mxGeometry width="50" height="50" relative="1" as="geometry">
            <mxPoint x="100" y="2930" as="sourcePoint" />
            <mxPoint x="110" y="2970" as="targetPoint" />
            <Array as="points">
              <mxPoint x="100" y="2980" />
            </Array>
          </mxGeometry>
        </mxCell>
        <mxCell id="O_YKN4MGbLcvjd-okBJ1-165" value="Зарплаты и кадры" style="rounded=0;whiteSpace=wrap;html=1;" parent="1" vertex="1">
          <mxGeometry x="80" y="3070" width="120" height="40" as="geometry" />
        </mxCell>
        <mxCell id="O_YKN4MGbLcvjd-okBJ1-166" value="Кадры" style="rounded=0;whiteSpace=wrap;html=1;" parent="1" vertex="1">
          <mxGeometry x="220" y="3130" width="190" height="40" as="geometry" />
        </mxCell>
        <mxCell id="O_YKN4MGbLcvjd-okBJ1-167" value="" style="endArrow=classic;html=1;rounded=0;exitX=0.5;exitY=1;exitDx=0;exitDy=0;entryX=0;entryY=0.5;entryDx=0;entryDy=0;" parent="1" source="O_YKN4MGbLcvjd-okBJ1-165" target="O_YKN4MGbLcvjd-okBJ1-166" edge="1">
          <mxGeometry width="50" height="50" relative="1" as="geometry">
            <mxPoint x="100" y="3180" as="sourcePoint" />
            <mxPoint x="150" y="3130" as="targetPoint" />
            <Array as="points">
              <mxPoint x="140" y="3150" />
            </Array>
          </mxGeometry>
        </mxCell>
        <mxCell id="O_YKN4MGbLcvjd-okBJ1-168" value="Зарплаты" style="rounded=0;whiteSpace=wrap;html=1;" parent="1" vertex="1">
          <mxGeometry x="220" y="3180" width="190" height="40" as="geometry" />
        </mxCell>
        <mxCell id="O_YKN4MGbLcvjd-okBJ1-169" value="" style="endArrow=classic;html=1;rounded=0;entryX=0;entryY=0.5;entryDx=0;entryDy=0;" parent="1" target="O_YKN4MGbLcvjd-okBJ1-168" edge="1">
          <mxGeometry width="50" height="50" relative="1" as="geometry">
            <mxPoint x="140" y="3140" as="sourcePoint" />
            <mxPoint x="150" y="3180" as="targetPoint" />
            <Array as="points">
              <mxPoint x="140" y="3200" />
            </Array>
          </mxGeometry>
        </mxCell>
        <mxCell id="O_YKN4MGbLcvjd-okBJ1-170" value="НДФЛ" style="rounded=0;whiteSpace=wrap;html=1;" parent="1" vertex="1">
          <mxGeometry x="220" y="3230" width="190" height="40" as="geometry" />
        </mxCell>
        <mxCell id="O_YKN4MGbLcvjd-okBJ1-171" value="" style="endArrow=classic;html=1;rounded=0;entryX=0;entryY=0.5;entryDx=0;entryDy=0;" parent="1" target="O_YKN4MGbLcvjd-okBJ1-170" edge="1">
          <mxGeometry width="50" height="50" relative="1" as="geometry">
            <mxPoint x="140" y="3200" as="sourcePoint" />
            <mxPoint x="150" y="3240" as="targetPoint" />
            <Array as="points">
              <mxPoint x="140" y="3250" />
            </Array>
          </mxGeometry>
        </mxCell>
        <mxCell id="O_YKN4MGbLcvjd-okBJ1-172" value="Страховые взносы" style="rounded=0;whiteSpace=wrap;html=1;" parent="1" vertex="1">
          <mxGeometry x="220" y="3280" width="190" height="40" as="geometry" />
        </mxCell>
        <mxCell id="O_YKN4MGbLcvjd-okBJ1-173" value="" style="endArrow=classic;html=1;rounded=0;entryX=0;entryY=0.5;entryDx=0;entryDy=0;" parent="1" target="O_YKN4MGbLcvjd-okBJ1-172" edge="1">
          <mxGeometry width="50" height="50" relative="1" as="geometry">
            <mxPoint x="140" y="3250" as="sourcePoint" />
            <mxPoint x="150" y="3290" as="targetPoint" />
            <Array as="points">
              <mxPoint x="140" y="3300" />
            </Array>
          </mxGeometry>
        </mxCell>
        <mxCell id="O_YKN4MGbLcvjd-okBJ1-174" value="Зарплатные проекты" style="rounded=0;whiteSpace=wrap;html=1;" parent="1" vertex="1">
          <mxGeometry x="220" y="3330" width="190" height="40" as="geometry" />
        </mxCell>
        <mxCell id="O_YKN4MGbLcvjd-okBJ1-175" value="" style="endArrow=classic;html=1;rounded=0;entryX=0;entryY=0.5;entryDx=0;entryDy=0;" parent="1" target="O_YKN4MGbLcvjd-okBJ1-174" edge="1">
          <mxGeometry width="50" height="50" relative="1" as="geometry">
            <mxPoint x="140" y="3300" as="sourcePoint" />
            <mxPoint x="150" y="3340" as="targetPoint" />
            <Array as="points">
              <mxPoint x="140" y="3350" />
            </Array>
          </mxGeometry>
        </mxCell>
        <mxCell id="O_YKN4MGbLcvjd-okBJ1-182" value="Операции" style="rounded=0;whiteSpace=wrap;html=1;" parent="1" vertex="1">
          <mxGeometry x="80" y="3507" width="120" height="40" as="geometry" />
        </mxCell>
        <mxCell id="O_YKN4MGbLcvjd-okBJ1-183" value="Бухгалтерский учет" style="rounded=0;whiteSpace=wrap;html=1;" parent="1" vertex="1">
          <mxGeometry x="220" y="3567" width="190" height="40" as="geometry" />
        </mxCell>
        <mxCell id="O_YKN4MGbLcvjd-okBJ1-184" value="" style="endArrow=classic;html=1;rounded=0;exitX=0.5;exitY=1;exitDx=0;exitDy=0;entryX=0;entryY=0.5;entryDx=0;entryDy=0;" parent="1" source="O_YKN4MGbLcvjd-okBJ1-182" target="O_YKN4MGbLcvjd-okBJ1-183" edge="1">
          <mxGeometry width="50" height="50" relative="1" as="geometry">
            <mxPoint x="100" y="3617" as="sourcePoint" />
            <mxPoint x="150" y="3567" as="targetPoint" />
            <Array as="points">
              <mxPoint x="140" y="3587" />
            </Array>
          </mxGeometry>
        </mxCell>
        <mxCell id="O_YKN4MGbLcvjd-okBJ1-185" value="Закрытие периода" style="rounded=0;whiteSpace=wrap;html=1;" parent="1" vertex="1">
          <mxGeometry x="220" y="3617" width="190" height="40" as="geometry" />
        </mxCell>
        <mxCell id="O_YKN4MGbLcvjd-okBJ1-186" value="" style="endArrow=classic;html=1;rounded=0;entryX=0;entryY=0.5;entryDx=0;entryDy=0;" parent="1" target="O_YKN4MGbLcvjd-okBJ1-185" edge="1">
          <mxGeometry width="50" height="50" relative="1" as="geometry">
            <mxPoint x="140" y="3577" as="sourcePoint" />
            <mxPoint x="150" y="3617" as="targetPoint" />
            <Array as="points">
              <mxPoint x="140" y="3637" />
            </Array>
          </mxGeometry>
        </mxCell>
        <mxCell id="O_YKN4MGbLcvjd-okBJ1-187" value="НДС" style="rounded=0;whiteSpace=wrap;html=1;" parent="1" vertex="1">
          <mxGeometry x="220" y="3667" width="190" height="40" as="geometry" />
        </mxCell>
        <mxCell id="O_YKN4MGbLcvjd-okBJ1-188" value="" style="endArrow=classic;html=1;rounded=0;entryX=0;entryY=0.5;entryDx=0;entryDy=0;" parent="1" target="O_YKN4MGbLcvjd-okBJ1-187" edge="1">
          <mxGeometry width="50" height="50" relative="1" as="geometry">
            <mxPoint x="140" y="3637" as="sourcePoint" />
            <mxPoint x="150" y="3677" as="targetPoint" />
            <Array as="points">
              <mxPoint x="140" y="3687" />
            </Array>
          </mxGeometry>
        </mxCell>
        <mxCell id="O_YKN4MGbLcvjd-okBJ1-189" value="Изменение режима налогооблажения" style="rounded=0;whiteSpace=wrap;html=1;" parent="1" vertex="1">
          <mxGeometry x="220" y="3717" width="190" height="40" as="geometry" />
        </mxCell>
        <mxCell id="O_YKN4MGbLcvjd-okBJ1-190" value="" style="endArrow=classic;html=1;rounded=0;entryX=0;entryY=0.5;entryDx=0;entryDy=0;" parent="1" target="O_YKN4MGbLcvjd-okBJ1-189" edge="1">
          <mxGeometry width="50" height="50" relative="1" as="geometry">
            <mxPoint x="140" y="3687" as="sourcePoint" />
            <mxPoint x="150" y="3727" as="targetPoint" />
            <Array as="points">
              <mxPoint x="140" y="3737" />
            </Array>
          </mxGeometry>
        </mxCell>
        <mxCell id="O_YKN4MGbLcvjd-okBJ1-193" value="ОС и НМА" style="rounded=0;whiteSpace=wrap;html=1;" parent="1" vertex="1">
          <mxGeometry x="80" y="3850" width="120" height="40" as="geometry" />
        </mxCell>
        <mxCell id="O_YKN4MGbLcvjd-okBJ1-194" value="Стандартные отчеты" style="rounded=0;whiteSpace=wrap;html=1;" parent="1" vertex="1">
          <mxGeometry x="220" y="3910" width="190" height="40" as="geometry" />
        </mxCell>
        <mxCell id="O_YKN4MGbLcvjd-okBJ1-195" value="" style="endArrow=classic;html=1;rounded=0;exitX=0.5;exitY=1;exitDx=0;exitDy=0;entryX=0;entryY=0.5;entryDx=0;entryDy=0;" parent="1" source="O_YKN4MGbLcvjd-okBJ1-193" target="O_YKN4MGbLcvjd-okBJ1-194" edge="1">
          <mxGeometry width="50" height="50" relative="1" as="geometry">
            <mxPoint x="100" y="3960" as="sourcePoint" />
            <mxPoint x="150" y="3910" as="targetPoint" />
            <Array as="points">
              <mxPoint x="140" y="3930" />
            </Array>
          </mxGeometry>
        </mxCell>
        <mxCell id="O_YKN4MGbLcvjd-okBJ1-196" value="Анализ учета" style="rounded=0;whiteSpace=wrap;html=1;" parent="1" vertex="1">
          <mxGeometry x="220" y="3960" width="190" height="40" as="geometry" />
        </mxCell>
        <mxCell id="O_YKN4MGbLcvjd-okBJ1-197" value="" style="endArrow=classic;html=1;rounded=0;entryX=0;entryY=0.5;entryDx=0;entryDy=0;" parent="1" target="O_YKN4MGbLcvjd-okBJ1-196" edge="1">
          <mxGeometry width="50" height="50" relative="1" as="geometry">
            <mxPoint x="140" y="3920" as="sourcePoint" />
            <mxPoint x="150" y="3960" as="targetPoint" />
            <Array as="points">
              <mxPoint x="140" y="3980" />
            </Array>
          </mxGeometry>
        </mxCell>
        <mxCell id="O_YKN4MGbLcvjd-okBJ1-198" value="1С-Отчетность" style="rounded=0;whiteSpace=wrap;html=1;" parent="1" vertex="1">
          <mxGeometry x="220" y="4010" width="190" height="40" as="geometry" />
        </mxCell>
        <mxCell id="O_YKN4MGbLcvjd-okBJ1-199" value="" style="endArrow=classic;html=1;rounded=0;entryX=0;entryY=0.5;entryDx=0;entryDy=0;" parent="1" target="O_YKN4MGbLcvjd-okBJ1-198" edge="1">
          <mxGeometry width="50" height="50" relative="1" as="geometry">
            <mxPoint x="140" y="3980" as="sourcePoint" />
            <mxPoint x="150" y="4020" as="targetPoint" />
            <Array as="points">
              <mxPoint x="140" y="4030" />
            </Array>
          </mxGeometry>
        </mxCell>
        <mxCell id="O_YKN4MGbLcvjd-okBJ1-200" value="НДС" style="rounded=0;whiteSpace=wrap;html=1;" parent="1" vertex="1">
          <mxGeometry x="220" y="4060" width="190" height="40" as="geometry" />
        </mxCell>
        <mxCell id="O_YKN4MGbLcvjd-okBJ1-201" value="" style="endArrow=classic;html=1;rounded=0;entryX=0;entryY=0.5;entryDx=0;entryDy=0;" parent="1" target="O_YKN4MGbLcvjd-okBJ1-200" edge="1">
          <mxGeometry width="50" height="50" relative="1" as="geometry">
            <mxPoint x="140" y="4030" as="sourcePoint" />
            <mxPoint x="150" y="4070" as="targetPoint" />
            <Array as="points">
              <mxPoint x="140" y="4080" />
            </Array>
          </mxGeometry>
        </mxCell>
        <mxCell id="O_YKN4MGbLcvjd-okBJ1-202" value="Налог на прибыль" style="rounded=0;whiteSpace=wrap;html=1;" parent="1" vertex="1">
          <mxGeometry x="220" y="4110" width="190" height="40" as="geometry" />
        </mxCell>
        <mxCell id="O_YKN4MGbLcvjd-okBJ1-203" value="" style="endArrow=classic;html=1;rounded=0;entryX=0;entryY=0.5;entryDx=0;entryDy=0;" parent="1" target="O_YKN4MGbLcvjd-okBJ1-202" edge="1">
          <mxGeometry width="50" height="50" relative="1" as="geometry">
            <mxPoint x="140" y="4080" as="sourcePoint" />
            <mxPoint x="150" y="4120" as="targetPoint" />
            <Array as="points">
              <mxPoint x="140" y="4130" />
            </Array>
          </mxGeometry>
        </mxCell>
        <mxCell id="O_YKN4MGbLcvjd-okBJ1-204" value="Отчеты для малых предприятий" style="rounded=0;whiteSpace=wrap;html=1;" parent="1" vertex="1">
          <mxGeometry x="220" y="4160" width="190" height="40" as="geometry" />
        </mxCell>
        <mxCell id="O_YKN4MGbLcvjd-okBJ1-205" value="" style="endArrow=classic;html=1;rounded=0;entryX=0;entryY=0.5;entryDx=0;entryDy=0;" parent="1" target="O_YKN4MGbLcvjd-okBJ1-204" edge="1">
          <mxGeometry width="50" height="50" relative="1" as="geometry">
            <mxPoint x="140" y="4130" as="sourcePoint" />
            <mxPoint x="150" y="4170" as="targetPoint" />
            <Array as="points">
              <mxPoint x="140" y="4180" />
            </Array>
          </mxGeometry>
        </mxCell>
        <mxCell id="O_YKN4MGbLcvjd-okBJ1-208" value="Справочники" style="rounded=0;whiteSpace=wrap;html=1;" parent="1" vertex="1">
          <mxGeometry x="80" y="4230" width="120" height="40" as="geometry" />
        </mxCell>
        <mxCell id="O_YKN4MGbLcvjd-okBJ1-227" value="" style="endArrow=classic;html=1;rounded=0;exitX=0;exitY=0.5;exitDx=0;exitDy=0;entryX=0;entryY=0.5;entryDx=0;entryDy=0;" parent="1" source="O_YKN4MGbLcvjd-okBJ1-208" target="O_YKN4MGbLcvjd-okBJ1-49" edge="1">
          <mxGeometry width="50" height="50" relative="1" as="geometry">
            <mxPoint x="30" y="4240" as="sourcePoint" />
            <mxPoint x="30" y="762" as="targetPoint" />
            <Array as="points">
              <mxPoint y="4250" />
              <mxPoint y="760" />
            </Array>
          </mxGeometry>
        </mxCell>
        <mxCell id="O_YKN4MGbLcvjd-okBJ1-230" value="" style="endArrow=classic;html=1;rounded=0;exitX=0;exitY=0.5;exitDx=0;exitDy=0;" parent="1" source="O_YKN4MGbLcvjd-okBJ1-208" edge="1">
          <mxGeometry width="50" height="50" relative="1" as="geometry">
            <mxPoint x="30" y="4220" as="sourcePoint" />
            <mxPoint x="30" y="1400" as="targetPoint" />
            <Array as="points">
              <mxPoint y="4250" />
              <mxPoint y="1400" />
            </Array>
          </mxGeometry>
        </mxCell>
        <mxCell id="O_YKN4MGbLcvjd-okBJ1-232" value="" style="endArrow=none;dashed=1;html=1;rounded=0;" parent="1" edge="1">
          <mxGeometry width="50" height="50" relative="1" as="geometry">
            <mxPoint x="30" y="1600" as="sourcePoint" />
            <mxPoint x="30" y="1180" as="targetPoint" />
          </mxGeometry>
        </mxCell>
        <mxCell id="O_YKN4MGbLcvjd-okBJ1-233" value="" style="endArrow=classic;html=1;rounded=0;entryX=0;entryY=0.5;entryDx=0;entryDy=0;" parent="1" target="O_YKN4MGbLcvjd-okBJ1-165" edge="1">
          <mxGeometry width="50" height="50" relative="1" as="geometry">
            <mxPoint y="3090" as="sourcePoint" />
            <mxPoint x="70" y="3080" as="targetPoint" />
          </mxGeometry>
        </mxCell>
        <mxCell id="O_YKN4MGbLcvjd-okBJ1-234" value="" style="endArrow=classic;html=1;rounded=0;entryX=0;entryY=0.5;entryDx=0;entryDy=0;" parent="1" target="O_YKN4MGbLcvjd-okBJ1-146" edge="1">
          <mxGeometry width="50" height="50" relative="1" as="geometry">
            <mxPoint y="2570" as="sourcePoint" />
            <mxPoint x="70" y="2560" as="targetPoint" />
          </mxGeometry>
        </mxCell>
        <mxCell id="O_YKN4MGbLcvjd-okBJ1-235" value="" style="endArrow=classic;html=1;rounded=0;exitX=0.451;exitY=1.022;exitDx=0;exitDy=0;exitPerimeter=0;entryX=0;entryY=0.5;entryDx=0;entryDy=0;" parent="1" source="O_YKN4MGbLcvjd-okBJ1-208" target="O_YKN4MGbLcvjd-okBJ1-236" edge="1">
          <mxGeometry width="50" height="50" relative="1" as="geometry">
            <mxPoint x="180" y="4380" as="sourcePoint" />
            <mxPoint x="160" y="4320" as="targetPoint" />
            <Array as="points">
              <mxPoint x="134" y="4320" />
            </Array>
          </mxGeometry>
        </mxCell>
        <mxCell id="O_YKN4MGbLcvjd-okBJ1-236" value="Доходы и расходы" style="rounded=0;whiteSpace=wrap;html=1;" parent="1" vertex="1">
          <mxGeometry x="160" y="4300" width="120" height="40" as="geometry" />
        </mxCell>
        <mxCell id="O_YKN4MGbLcvjd-okBJ1-241" value="" style="endArrow=none;dashed=1;html=1;rounded=1;sketch=0;curved=0;" parent="1" edge="1">
          <mxGeometry width="50" height="50" relative="1" as="geometry">
            <mxPoint x="370" y="119.5" as="sourcePoint" />
            <mxPoint x="440" y="119.5" as="targetPoint" />
            <Array as="points">
              <mxPoint x="400" y="120" />
              <mxPoint x="410" y="119.5" />
            </Array>
          </mxGeometry>
        </mxCell>
      </root>
    </mxGraphModel>
  </diagram>
</mxfile>
